<?xml version="1.0" encoding="UTF-8"?>
<svg xmlns="http://www.w3.org/2000/svg" xmlns:xlink="http://www.w3.org/1999/xlink" viewBox="0 0 64 64" width="64px" height="64px">
<defs>
<linearGradient id="linear0" gradientUnits="userSpaceOnUse" x1="86" y1="16.125" x2="86" y2="155.522934" gradientTransform="matrix(0.372093,0,0,0.372093,0,0)">
<stop offset="0" style="stop-color:rgb(25.490198%,76.862746%,34.117648%);stop-opacity:1;"/>
<stop offset="1" style="stop-color:rgb(48.627451%,89.803922%,54.901963%);stop-opacity:1;"/>
</linearGradient>
<linearGradient id="linear1" gradientUnits="userSpaceOnUse" x1="86" y1="17.245689" x2="86" y2="155.020386" gradientTransform="matrix(0.372093,0,0,0.372093,0,0)">
<stop offset="0" style="stop-color:rgb(25.490198%,76.862746%,34.117648%);stop-opacity:1;"/>
<stop offset="1" style="stop-color:rgb(48.627451%,89.803922%,54.901963%);stop-opacity:1;"/>
</linearGradient>
<linearGradient id="linear2" gradientUnits="userSpaceOnUse" x1="91.912498" y1="108.897499" x2="91.912498" y2="134.375" gradientTransform="matrix(0.372093,0,0,0.372093,0,0)">
<stop offset="0" style="stop-color:rgb(59.215689%,87.450981%,63.921571%);stop-opacity:1;"/>
<stop offset="1" style="stop-color:rgb(85.490197%,97.254902%,87.058824%);stop-opacity:1;"/>
</linearGradient>
<linearGradient id="linear3" gradientUnits="userSpaceOnUse" x1="99.141876" y1="77.9375" x2="99.141876" y2="124.807503" gradientTransform="matrix(0.372093,0,0,0.372093,0,0)">
<stop offset="0" style="stop-color:rgb(59.215689%,87.450981%,63.921571%);stop-opacity:1;"/>
<stop offset="1" style="stop-color:rgb(85.490197%,97.254902%,87.058824%);stop-opacity:1;"/>
</linearGradient>
<linearGradient id="linear4" gradientUnits="userSpaceOnUse" x1="103.025307" y1="52.218128" x2="103.025307" y2="118.255379" gradientTransform="matrix(0.372093,0,0,0.372093,0,0)">
<stop offset="0" style="stop-color:rgb(59.215689%,87.450981%,63.921571%);stop-opacity:1;"/>
<stop offset="1" style="stop-color:rgb(85.490197%,97.254902%,87.058824%);stop-opacity:1;"/>
</linearGradient>
</defs>
<g id="surface6940049">
<path style=" stroke:none;fill-rule:nonzero;fill:url(#linear0);" d="M 32 58 C 17.664062 58 6 46.335938 6 32 C 6 17.664062 17.664062 6 32 6 C 46.335938 6 58 17.664062 58 32 C 58 46.335938 46.335938 58 32 58 Z M 32 8 C 18.765625 8 8 18.765625 8 32 C 8 45.234375 18.765625 56 32 56 C 45.234375 56 56 45.234375 56 32 C 56 18.765625 45.234375 8 32 8 Z M 32 8 "/>
<path style=" stroke:none;fill-rule:nonzero;fill:url(#linear1);" d="M 32 12 C 20.972656 12 12 20.972656 12 32 C 12 43.589844 20.410156 52 32 52 C 43.589844 52 52 43.589844 52 32 C 52 20.972656 43.027344 12 32 12 Z M 49.277344 27 L 42.882812 27 L 42.875 27.992188 C 42.875 28.089844 42.730469 37.570312 36.136719 42.238281 C 33.8125 43.882812 30.589844 44.191406 27.390625 43.910156 C 30.652344 43.554688 33.90625 42.289062 36.304688 39.265625 C 41.441406 32.789062 39.847656 26.453125 39.089844 24.339844 L 44.863281 19.429688 C 46.90625 21.523438 48.441406 24.113281 49.277344 27 Z M 32 14 C 36.3125 14 40.273438 15.527344 43.378906 18.066406 L 36.652344 23.785156 L 36.988281 24.480469 C 37.019531 24.546875 40.128906 31.222656 34.734375 38.023438 C 29.300781 44.878906 17.917969 40.9375 15.753906 40.101562 C 14.632812 37.703125 14 34.972656 14 32 C 14 22.074219 22.074219 14 32 14 Z M 32 50 C 27.785156 50 24.050781 48.746094 21.082031 46.585938 C 23.558594 47.625 26.777344 48.4375 30.8125 48.4375 C 38.96875 48.4375 43.765625 42.769531 45.347656 40.515625 L 47.316406 41.828125 C 44.230469 46.851562 38.714844 50 32 50 Z M 48.265625 40.058594 L 44.726562 37.703125 L 44.195312 38.628906 C 44.148438 38.703125 39.597656 46.4375 30.8125 46.4375 C 28.0625 46.4375 25.734375 46.015625 23.785156 45.414062 C 25.570312 45.761719 27.472656 46 29.355469 46 C 32.242188 46 35.066406 45.441406 37.289062 43.871094 C 43.449219 39.511719 44.605469 31.757812 44.824219 29 L 49.726562 29 C 49.894531 29.976562 50 30.976562 50 32 C 50 34.957031 49.375 37.667969 48.265625 40.058594 Z M 48.265625 40.058594 "/>
<path style=" stroke:none;fill-rule:nonzero;fill:url(#linear2);" d="M 47.320312 41.828125 C 44.230469 46.851562 38.71875 50 32 50 C 27.789062 50 24.050781 48.75 21.078125 46.589844 C 23.558594 47.628906 26.78125 48.441406 30.808594 48.441406 C 38.96875 48.441406 43.761719 42.769531 45.351562 40.519531 Z M 47.320312 41.828125 "/>
<path style=" stroke:none;fill-rule:nonzero;fill:url(#linear3);" d="M 50 32 C 50 34.960938 49.371094 37.671875 48.269531 40.058594 L 44.730469 37.699219 L 44.199219 38.628906 C 44.148438 38.710938 39.601562 46.441406 30.808594 46.441406 C 28.058594 46.441406 25.738281 46.019531 23.78125 45.410156 C 25.570312 45.761719 27.46875 46 29.359375 46 C 32.238281 46 35.070312 45.441406 37.289062 43.871094 C 43.449219 39.511719 44.609375 31.761719 44.820312 29 L 49.730469 29 C 49.890625 29.980469 50 30.980469 50 32 Z M 50 32 "/>
<path style=" stroke:none;fill-rule:nonzero;fill:url(#linear4);" d="M 49.28125 27 L 42.878906 27 L 42.878906 27.988281 C 42.871094 28.089844 42.730469 37.570312 36.140625 42.238281 C 33.808594 43.878906 30.589844 44.191406 27.390625 43.910156 C 30.648438 43.558594 33.910156 42.289062 36.300781 39.269531 C 41.441406 32.789062 39.851562 26.449219 39.089844 24.339844 L 44.859375 19.429688 C 46.910156 21.519531 48.441406 24.109375 49.28125 27 Z M 49.28125 27 "/>
</g>
</svg>
